<svg width="28" height="28" viewBox="0 0 28 28" fill="none" xmlns="http://www.w3.org/2000/svg">
<rect width="28" height="28" rx="14" fill="#D9E5FF"/>
<mask id="mask0_530_4132" style="mask-type:alpha" maskUnits="userSpaceOnUse" x="4" y="4" width="20" height="20">
<rect x="4.6665" y="4.66699" width="18.6667" height="18.6667" fill="#D9D9D9"/>
</mask>
<g mask="url(#mask0_530_4132)">
<path d="M20.9998 17.1111V12.5222L14.7387 15.925C14.5054 16.0546 14.2591 16.1194 13.9998 16.1194C13.7405 16.1194 13.4942 16.0546 13.2609 15.925L6.68869 12.3472C6.5461 12.2694 6.44564 12.1722 6.3873 12.0555C6.32897 11.9389 6.2998 11.8092 6.2998 11.6666C6.2998 11.5241 6.32897 11.3944 6.3873 11.2778C6.44564 11.1611 6.5461 11.0639 6.68869 10.9861L13.2609 7.40831C13.3776 7.3435 13.4975 7.29489 13.6206 7.26248C13.7438 7.23007 13.8702 7.21387 13.9998 7.21387C14.1294 7.21387 14.2558 7.23007 14.379 7.26248C14.5021 7.29489 14.622 7.3435 14.7387 7.40831L22.147 11.4528C22.2767 11.5176 22.3771 11.6116 22.4484 11.7347C22.5197 11.8578 22.5554 11.9907 22.5554 12.1333V17.1111C22.5554 17.3315 22.4808 17.5162 22.3317 17.6653C22.1827 17.8143 21.998 17.8889 21.7776 17.8889C21.5572 17.8889 21.3725 17.8143 21.2234 17.6653C21.0743 17.5162 20.9998 17.3315 20.9998 17.1111ZM13.2609 20.5916L9.37203 18.4916C9.11277 18.3491 8.91184 18.1546 8.76925 17.9083C8.62666 17.662 8.55536 17.3963 8.55536 17.1111V14.1555L13.2609 16.7028C13.4942 16.8324 13.7405 16.8972 13.9998 16.8972C14.2591 16.8972 14.5054 16.8324 14.7387 16.7028L19.4442 14.1555V17.1111C19.4442 17.3963 19.373 17.662 19.2304 17.9083C19.0878 18.1546 18.8868 18.3491 18.6276 18.4916L14.7387 20.5916C14.622 20.6565 14.5021 20.7051 14.379 20.7375C14.2558 20.7699 14.1294 20.7861 13.9998 20.7861C13.8702 20.7861 13.7438 20.7699 13.6206 20.7375C13.4975 20.7051 13.3776 20.6565 13.2609 20.5916Z" fill="#1F4788"/>
</g>
</svg>
