<svg width="120" height="120" viewBox="0 0 120 120" fill="none" xmlns="http://www.w3.org/2000/svg">
<path d="M60 110C87.6142 110 110 87.6142 110 60C110 32.3858 87.6142 10 60 10C32.3858 10 10 32.3858 10 60C10 87.6142 32.3858 110 60 110Z" fill="#E8EEF9"/>
<path d="M82 50H38C36.3431 50 35 51.3431 35 53V85C35 86.6569 36.3431 88 38 88H82C83.6569 88 85 86.6569 85 85V53C85 51.3431 83.6569 50 82 50Z" fill="white" stroke="#4169E1" stroke-width="2.5"/>
<path d="M50 50V45C50 41.6667 51.6667 40 55 40H65C68.3333 40 70 41.6667 70 45V50" stroke="#4169E1" stroke-width="2.5" stroke-linecap="round"/>
<path d="M66.5 58H53.5C52.6716 58 52 58.6716 52 59.5C52 60.3284 52.6716 61 53.5 61H66.5C67.3284 61 68 60.3284 68 59.5C68 58.6716 67.3284 58 66.5 58Z" fill="#4169E1"/>
<path d="M95 43C101.627 43 107 37.6274 107 31C107 24.3726 101.627 19 95 19C88.3726 19 83 24.3726 83 31C83 37.6274 88.3726 43 95 43Z" fill="#4169E1"/>
<path d="M95 26V36" stroke="white" stroke-width="2.5" stroke-linecap="round"/>
<path d="M90 31H100" stroke="white" stroke-width="2.5" stroke-linecap="round"/>
<path opacity="0.3" d="M42 63C43.6569 63 45 61.6569 45 60C45 58.3431 43.6569 57 42 57C40.3431 57 39 58.3431 39 60C39 61.6569 40.3431 63 42 63Z" fill="#4169E1"/>
<path opacity="0.3" d="M78 77.5C79.3807 77.5 80.5 76.3807 80.5 75C80.5 73.6193 79.3807 72.5 78 72.5C76.6193 72.5 75.5 73.6193 75.5 75C75.5 76.3807 76.6193 77.5 78 77.5Z" fill="#4169E1"/>
</svg>
