<svg width="120" height="120" viewBox="0 0 120 120" fill="none" xmlns="http://www.w3.org/2000/svg">
<path d="M60 110C87.6142 110 110 87.6142 110 60C110 32.3858 87.6142 10 60 10C32.3858 10 10 32.3858 10 60C10 87.6142 32.3858 110 60 110Z" fill="#E8EEF9"/>
<path opacity="0.3" d="M27 63C28.6569 63 30 61.6569 30 60C30 58.3431 28.6569 57 27 57C25.3431 57 24 58.3431 24 60C24 61.6569 25.3431 63 27 63Z" fill="#4169E1"/>
<path opacity="0.3" d="M88 87.5C89.3807 87.5 90.5 86.3807 90.5 85C90.5 83.6193 89.3807 82.5 88 82.5C86.6193 82.5 85.5 83.6193 85.5 85C85.5 86.3807 86.6193 87.5 88 87.5Z" fill="#4169E1"/>
<path d="M68.9987 57.6667C65.777 57.6667 63.1654 55.055 63.1654 51.8333C63.1654 48.6117 65.777 46 68.9987 46C72.2204 46 74.832 48.6117 74.832 51.8333C74.832 55.055 72.2204 57.6667 68.9987 57.6667Z" stroke="#4169E1" stroke-width="3.5" stroke-linecap="round"/>
<path d="M51.9987 57.6667C48.777 57.6667 46.1654 55.055 46.1654 51.8333C46.1654 48.6117 48.777 46 51.9987 46C55.2204 46 57.832 48.6117 57.832 51.8333C57.832 55.055 55.2204 57.6667 51.9987 57.6667Z" stroke="#4169E1" stroke-width="3.5" stroke-linecap="round"/>
<path d="M81.582 72.2499C81.582 67.7466 74.4429 65.8333 68.497 65.8333C62.5512 65.8333 55.412 67.7466 55.412 72.2499V74.5833H81.582V72.2499Z" stroke="#4169E1" stroke-width="3.5" stroke-linecap="round" stroke-linejoin="round"/>
<path d="M48.5 65.8333C43.46 65.8333 37.4167 67.7466 37.4167 72.2499V74.5833H45" stroke="#4169E1" stroke-width="3.5" stroke-linecap="round" stroke-linejoin="round"/>
<path d="M90 44C96.6274 44 102 38.6274 102 32C102 25.3726 96.6274 20 90 20C83.3726 20 78 25.3726 78 32C78 38.6274 83.3726 44 90 44Z" fill="#4169E1"/>
<path d="M90 27V37" stroke="white" stroke-width="2.5" stroke-linecap="round"/>
<path d="M85 32H95" stroke="white" stroke-width="2.5" stroke-linecap="round"/>
</svg>
