<svg width="120" height="120" viewBox="0 0 120 120" fill="none" xmlns="http://www.w3.org/2000/svg">
<path d="M60 110C87.6142 110 110 87.6142 110 60C110 32.3858 87.6142 10 60 10C32.3858 10 10 32.3858 10 60C10 87.6142 32.3858 110 60 110Z" fill="#E8EEF9"/>
<path opacity="0.3" d="M27 63C28.6569 63 30 61.6569 30 60C30 58.3431 28.6569 57 27 57C25.3431 57 24 58.3431 24 60C24 61.6569 25.3431 63 27 63Z" fill="#4169E1"/>
<path opacity="0.3" d="M88 87.5C89.3807 87.5 90.5 86.3807 90.5 85C90.5 83.6193 89.3807 82.5 88 82.5C86.6193 82.5 85.5 83.6193 85.5 85C85.5 86.3807 86.6193 87.5 88 87.5Z" fill="#4169E1"/>
<path d="M60.1667 57.6667C56.945 57.6667 54.3333 55.055 54.3333 51.8333C54.3333 48.6117 56.945 46 60.1667 46C63.3883 46 66 48.6117 66 51.8333C66 55.055 63.3883 57.6667 60.1667 57.6667Z" stroke="#4169E1" stroke-width="3.5" stroke-linecap="round"/>
<path d="M75 72.2499C75 67.7466 66.7696 65.8333 59.915 65.8333C53.0604 65.8333 44.83 67.7466 44.83 72.2499V74.5833H75V72.2499Z" stroke="#4169E1" stroke-width="3.5" stroke-linecap="round" stroke-linejoin="round"/>
<path d="M90 42C96.6274 42 102 36.6274 102 30C102 23.3726 96.6274 18 90 18C83.3726 18 78 23.3726 78 30C78 36.6274 83.3726 42 90 42Z" fill="#4169E1"/>
<path d="M90 25V35" stroke="white" stroke-width="2.5" stroke-linecap="round"/>
<path d="M85 30H95" stroke="white" stroke-width="2.5" stroke-linecap="round"/>
</svg>
