<svg width="28" height="28" viewBox="0 0 28 28" fill="none" xmlns="http://www.w3.org/2000/svg">
<rect width="28" height="28" rx="14" fill="#D9E5FF"/>
<mask id="mask0_51496_6420" style="mask-type:alpha" maskUnits="userSpaceOnUse" x="5" y="5" width="18" height="18">
<rect x="5" y="5" width="18" height="18" fill="#D9D9D9"/>
</mask>
<g mask="url(#mask0_51496_6420)">
<path d="M6.5 20V17.9C6.5 17.475 6.60625 17.0844 6.81875 16.7281C7.03125 16.3719 7.325 16.1 7.7 15.9125C8.45 15.5375 9.22813 15.25 10.0344 15.05C10.8406 14.85 11.6625 14.75 12.5 14.75C12.8125 14.75 13.125 14.7719 13.4375 14.8156C13.75 14.8594 14.0625 14.9125 14.375 14.975V16.1562C13.8125 16.4312 13.3594 16.7937 13.0156 17.2437C12.6719 17.6937 12.5 18.2812 12.5 19.0063V20H6.5ZM14 20V18.95C14 18.65 14.0781 18.3719 14.2344 18.1156C14.3906 17.8594 14.6125 17.675 14.9 17.5625C15.35 17.375 15.8156 17.2344 16.2969 17.1406C16.7781 17.0469 17.2625 17 17.75 17C18.2375 17 18.7219 17.0469 19.2031 17.1406C19.6844 17.2344 20.15 17.375 20.6 17.5625C20.8875 17.675 21.1094 17.8594 21.2656 18.1156C21.4219 18.3719 21.5 18.65 21.5 18.95V20H14ZM17.75 16.25C17.225 16.25 16.7812 16.0688 16.4188 15.7063C16.0563 15.3438 15.875 14.9 15.875 14.375C15.875 13.85 16.0563 13.4062 16.4188 13.0437C16.7812 12.6813 17.225 12.5 17.75 12.5C18.275 12.5 18.7188 12.6813 19.0812 13.0437C19.4437 13.4062 19.625 13.85 19.625 14.375C19.625 14.9 19.4437 15.3438 19.0812 15.7063C18.7188 16.0688 18.275 16.25 17.75 16.25ZM12.5 14C11.675 14 10.9688 13.7063 10.3813 13.1188C9.79375 12.5312 9.5 11.825 9.5 11C9.5 10.175 9.79375 9.46875 10.3813 8.88125C10.9688 8.29375 11.675 8 12.5 8C13.325 8 14.0312 8.29375 14.6187 8.88125C15.2063 9.46875 15.5 10.175 15.5 11C15.5 11.825 15.2063 12.5312 14.6187 13.1188C14.0312 13.7063 13.325 14 12.5 14Z" fill="#1F4788"/>
</g>
</svg>
