<svg width="28" height="28" viewBox="0 0 28 28" fill="none" xmlns="http://www.w3.org/2000/svg">
<rect width="28" height="28" rx="14" fill="#D9E5FF"/>
<mask id="mask0_530_4138" style="mask-type:alpha" maskUnits="userSpaceOnUse" x="4" y="4" width="20" height="20">
<rect x="4.66675" y="4.66699" width="18.6667" height="18.6667" fill="#D9D9D9"/>
</mask>
<g mask="url(#mask0_530_4138)">
<path d="M14.3889 8.16688C14.3889 8.59466 14.2366 8.96087 13.932 9.2655C13.6273 9.57012 13.2611 9.72244 12.8334 9.72244C12.6648 9.72244 12.5093 9.69975 12.3667 9.65438C12.2241 9.60901 12.0815 9.53448 11.9389 9.43077C11.6278 9.53448 11.3783 9.72244 11.1903 9.99466C11.0023 10.2669 10.9084 10.565 10.9084 10.8891H20.1056C20.3389 10.8891 20.5301 10.9798 20.6792 11.1613C20.8283 11.3428 20.8898 11.5502 20.8639 11.7836L20.3195 15.6724C20.2935 15.8669 20.206 16.0257 20.057 16.1488C19.9079 16.272 19.7361 16.3336 19.5417 16.3336H18.1417L18.2778 14.9919C18.3426 14.3567 18.1644 13.8058 17.7431 13.3391C17.3218 12.8724 16.7935 12.6391 16.1584 12.6391H11.8417C11.2065 12.6391 10.6783 12.8724 10.257 13.3391C9.83567 13.8058 9.65743 14.3567 9.72224 14.9919L9.85835 16.3336H8.45835C8.26391 16.3336 8.09215 16.272 7.94308 16.1488C7.794 16.0257 7.7065 15.8669 7.68058 15.6724L7.13613 11.7836C7.11021 11.5502 7.17178 11.3428 7.32085 11.1613C7.46993 10.9798 7.66113 10.8891 7.89447 10.8891H9.33335C9.33335 10.2539 9.50835 9.67707 9.85835 9.15855C10.2084 8.64003 10.6815 8.25762 11.2778 8.01133C11.3167 7.60948 11.4852 7.27568 11.7834 7.00994C12.0815 6.7442 12.4315 6.61133 12.8334 6.61133C13.2611 6.61133 13.6273 6.76364 13.932 7.06827C14.2366 7.3729 14.3889 7.73911 14.3889 8.16688ZM12.1334 20.4169H15.8667C16.0741 20.4169 16.2491 20.3521 16.3917 20.2224C16.5343 20.0928 16.6185 19.9243 16.6445 19.7169L17.1111 14.8752C17.1371 14.59 17.0593 14.3405 16.8778 14.1266C16.6963 13.9127 16.4565 13.8058 16.1584 13.8058H11.8417C11.5435 13.8058 11.3037 13.9127 11.1222 14.1266C10.9408 14.3405 10.863 14.59 10.8889 14.8752L11.3556 19.7169C11.3815 19.9243 11.4658 20.0928 11.6084 20.2224C11.7509 20.3521 11.9259 20.4169 12.1334 20.4169Z" fill="#1F4788"/>
</g>
</svg>
