<svg width="28" height="28" viewBox="0 0 28 28" fill="none" xmlns="http://www.w3.org/2000/svg">
<rect width="28" height="28" rx="14" fill="#D9E5FF"/>
<mask id="mask0_530_4102" style="mask-type:alpha" maskUnits="userSpaceOnUse" x="4" y="4" width="20" height="20">
<rect x="4.6665" y="4.66699" width="18.6667" height="18.6667" fill="#D9D9D9"/>
</mask>
<g mask="url(#mask0_530_4102)">
<path d="M7.77772 21.0007C7.34995 21.0007 6.98374 20.8484 6.67911 20.5438C6.37448 20.2391 6.22217 19.8729 6.22217 19.4451V7.46736C6.22217 7.37662 6.26106 7.31505 6.33883 7.28264C6.41661 7.25023 6.48791 7.26644 6.55272 7.33125L7.52495 8.30347L8.53606 7.27292C8.61383 7.19514 8.70458 7.15625 8.80828 7.15625C8.91198 7.15625 9.00272 7.19514 9.0805 7.27292L10.1111 8.30347L11.1416 7.27292C11.2194 7.19514 11.3101 7.15625 11.4138 7.15625C11.5175 7.15625 11.6083 7.19514 11.6861 7.27292L12.6972 8.30347L13.7277 7.27292C13.8055 7.19514 13.8962 7.15625 13.9999 7.15625C14.1036 7.15625 14.1944 7.19514 14.2722 7.27292L15.3027 8.30347L16.3138 7.27292C16.3916 7.19514 16.4824 7.15625 16.5861 7.15625C16.6898 7.15625 16.7805 7.19514 16.8583 7.27292L17.8888 8.30347L18.9194 7.27292C18.9972 7.19514 19.0879 7.15625 19.1916 7.15625C19.2953 7.15625 19.3861 7.19514 19.4638 7.27292L20.4749 8.30347L21.4472 7.33125C21.512 7.26644 21.5833 7.25023 21.6611 7.28264C21.7388 7.31505 21.7777 7.37662 21.7777 7.46736V19.4451C21.7777 19.8729 21.6254 20.2391 21.3208 20.5438C21.0161 20.8484 20.6499 21.0007 20.2222 21.0007H7.77772ZM7.77772 19.4451H13.2222V14.7785H7.77772V19.4451ZM14.7777 19.4451H20.2222V17.8896H14.7777V19.4451ZM14.7777 16.334H20.2222V14.7785H14.7777V16.334ZM7.77772 13.2229H20.2222V10.8896H7.77772V13.2229Z" fill="#1F4788"/>
</g>
</svg>
