<svg width="28" height="28" viewBox="0 0 28 28" fill="none" xmlns="http://www.w3.org/2000/svg">
<rect width="28" height="28" rx="14" fill="#D9E5FF"/>
<mask id="mask0_530_4144" style="mask-type:alpha" maskUnits="userSpaceOnUse" x="4" y="4" width="20" height="20">
<rect x="4.6665" y="4.66699" width="18.6667" height="18.6667" fill="#D9D9D9"/>
</mask>
<g mask="url(#mask0_530_4144)">
<path d="M14.7972 5.91115L21.0388 9.64449C21.2722 9.78708 21.4536 9.98152 21.5833 10.2278C21.7129 10.4741 21.7777 10.7334 21.7777 11.0056V19.4445C21.7777 19.8723 21.6254 20.2385 21.3208 20.5431C21.0161 20.8477 20.6499 21 20.2222 21H7.77772C7.34995 21 6.98374 20.8477 6.67911 20.5431C6.37448 20.2385 6.22217 19.8723 6.22217 19.4445V11.0056C6.22217 10.7334 6.28698 10.4741 6.41661 10.2278C6.54624 9.98152 6.72772 9.78708 6.96106 9.64449L13.2027 5.91115C13.449 5.76856 13.7148 5.69727 13.9999 5.69727C14.2851 5.69727 14.5509 5.76856 14.7972 5.91115ZM13.9999 14.5056L20.0666 10.8889L13.9999 7.27227L7.93328 10.8889L13.9999 14.5056Z" fill="#1F4788"/>
</g>
</svg>
