<svg width="28" height="28" viewBox="0 0 28 28" fill="none" xmlns="http://www.w3.org/2000/svg">
<rect width="28" height="28" rx="14" fill="#D9E5FF"/>
<mask id="mask0_530_4108" style="mask-type:alpha" maskUnits="userSpaceOnUse" x="4" y="4" width="20" height="20">
<rect x="4.6665" y="4.66699" width="18.6667" height="18.6667" fill="#1F4788"/>
</mask>
<g mask="url(#mask0_530_4108)">
<path d="M13.9997 15.9257L15.4969 16.8201C15.6395 16.9108 15.7788 16.9076 15.915 16.8104C16.0511 16.7132 16.0997 16.5803 16.0608 16.4118L15.6719 14.7201L16.9941 13.5729C17.1237 13.4562 17.1626 13.3169 17.1108 13.1548C17.0589 12.9928 16.9423 12.9053 16.7608 12.8923L15.0302 12.7562L14.3497 11.1423C14.2849 10.9868 14.1682 10.909 13.9997 10.909C13.8312 10.909 13.7145 10.9868 13.6497 11.1423L12.9691 12.7562L11.2386 12.8923C11.0571 12.9053 10.9404 12.9928 10.8886 13.1548C10.8367 13.3169 10.8756 13.4562 11.0052 13.5729L12.3275 14.7201L11.9386 16.4118C11.8997 16.5803 11.9483 16.7132 12.0844 16.8104C12.2205 16.9076 12.3599 16.9108 12.5025 16.8201L13.9997 15.9257ZM11.3941 20.2229H9.33301C8.90523 20.2229 8.53903 20.0706 8.2344 19.7659C7.92977 19.4613 7.77745 19.0951 7.77745 18.6673V16.6062L6.28023 15.0895C6.13764 14.934 6.02745 14.7622 5.94967 14.5743C5.8719 14.3863 5.83301 14.1951 5.83301 14.0007C5.83301 13.8062 5.8719 13.615 5.94967 13.427C6.02745 13.2391 6.13764 13.0673 6.28023 12.9118L7.77745 11.3951V9.33398C7.77745 8.90621 7.92977 8.54 8.2344 8.23537C8.53903 7.93074 8.90523 7.77843 9.33301 7.77843H11.3941L12.9108 6.28121C13.0663 6.13861 13.2381 6.02843 13.4261 5.95065C13.614 5.87287 13.8052 5.83398 13.9997 5.83398C14.1941 5.83398 14.3853 5.87287 14.5733 5.95065C14.7612 6.02843 14.933 6.13861 15.0886 6.28121L16.6052 7.77843H18.6663C19.0941 7.77843 19.4603 7.93074 19.765 8.23537C20.0696 8.54 20.2219 8.90621 20.2219 9.33398V11.3951L21.7191 12.9118C21.8617 13.0673 21.9719 13.2391 22.0497 13.427C22.1275 13.615 22.1663 13.8062 22.1663 14.0007C22.1663 14.1951 22.1275 14.3863 22.0497 14.5743C21.9719 14.7622 21.8617 14.934 21.7191 15.0895L20.2219 16.6062V18.6673C20.2219 19.0951 20.0696 19.4613 19.765 19.7659C19.4603 20.0706 19.0941 20.2229 18.6663 20.2229H16.6052L15.0886 21.7201C14.933 21.8627 14.7612 21.9729 14.5733 22.0506C14.3853 22.1284 14.1941 22.1673 13.9997 22.1673C13.8052 22.1673 13.614 22.1284 13.4261 22.0506C13.2381 21.9729 13.0663 21.8627 12.9108 21.7201L11.3941 20.2229Z" fill="#1F4788"/>
</g>
</svg>
