<svg width="28" height="28" viewBox="0 0 28 28" fill="none" xmlns="http://www.w3.org/2000/svg">
<rect width="28" height="28" rx="14" fill="#D9E5FF"/>
<mask id="mask0_530_4096" style="mask-type:alpha" maskUnits="userSpaceOnUse" x="4" y="4" width="20" height="20">
<rect x="4.66675" y="4.66699" width="18.6667" height="18.6667" fill="#D9D9D9"/>
</mask>
<g mask="url(#mask0_530_4096)">
<path d="M13.1446 16.2562L11.8807 21.934C11.8418 22.1155 11.7478 22.2645 11.5988 22.3812C11.4497 22.4979 11.2779 22.5562 11.0835 22.5562C10.8242 22.5562 10.6168 22.459 10.4613 22.2645C10.3057 22.0701 10.2539 21.8497 10.3057 21.6034L12.2891 11.5895L10.8891 12.134V14.0007C10.8891 14.221 10.8145 14.4057 10.6654 14.5548C10.5164 14.7039 10.3316 14.7784 10.1113 14.7784C9.8909 14.7784 9.70618 14.7039 9.55711 14.5548C9.40803 14.4057 9.3335 14.221 9.3335 14.0007V11.6284C9.3335 11.4729 9.37563 11.3335 9.45988 11.2104C9.54414 11.0872 9.65757 10.9932 9.80016 10.9284L13.2613 9.45065C13.4428 9.37287 13.634 9.3275 13.8349 9.31454C14.0358 9.30158 14.227 9.3275 14.4085 9.39232C14.59 9.45713 14.7617 9.54787 14.9238 9.66454C15.0858 9.78121 15.2187 9.93028 15.3224 10.1118L16.1002 11.3562C16.2687 11.6155 16.4664 11.8618 16.6932 12.0951C16.9201 12.3284 17.1761 12.5294 17.4613 12.6979C17.6428 12.8016 17.8437 12.8956 18.0641 12.9798C18.2844 13.0641 18.5048 13.1257 18.7252 13.1645C18.9326 13.2034 19.1043 13.2974 19.2404 13.4465C19.3766 13.5956 19.4446 13.7803 19.4446 14.0007C19.4446 14.221 19.3668 14.4025 19.2113 14.5451C19.0557 14.6877 18.8678 14.746 18.6474 14.7201C17.9215 14.6164 17.2701 14.3895 16.6932 14.0395C16.1164 13.6895 15.6141 13.2682 15.1863 12.7757L14.7002 15.1673L16.1002 16.4895C16.1779 16.5673 16.2363 16.6548 16.2752 16.752C16.3141 16.8493 16.3335 16.9497 16.3335 17.0534V21.7784C16.3335 21.9988 16.259 22.1835 16.1099 22.3326C15.9608 22.4817 15.7761 22.5562 15.5557 22.5562C15.3353 22.5562 15.1506 22.4817 15.0016 22.3326C14.8525 22.1835 14.7779 21.9988 14.7779 21.7784V17.5007L13.1446 16.2562ZM15.1668 8.9451C14.7391 8.9451 14.3728 8.79278 14.0682 8.48815C13.7636 8.18352 13.6113 7.81732 13.6113 7.38954C13.6113 6.96176 13.7636 6.59556 14.0682 6.29093C14.3728 5.9863 14.7391 5.83398 15.1668 5.83398C15.5946 5.83398 15.9608 5.9863 16.2654 6.29093C16.5701 6.59556 16.7224 6.96176 16.7224 7.38954C16.7224 7.81732 16.5701 8.18352 16.2654 8.48815C15.9608 8.79278 15.5946 8.9451 15.1668 8.9451Z" fill="#1F4788"/>
</g>
</svg>
